<?xml version="1.0" standalone="no"?>
<!DOCTYPE svg PUBLIC "-//W3C//DTD SVG 20010904//EN"
 "http://www.w3.org/TR/2001/REC-SVG-20010904/DTD/svg10.dtd">
<svg version="1.0" xmlns="http://www.w3.org/2000/svg"
 width="547.000000pt" height="456.000000pt" viewBox="0 0 547.000000 456.000000"
 preserveAspectRatio="xMidYMid meet">

<g transform="translate(0.000000,456.000000) scale(0.100000,-0.100000)"
fill="#000000" stroke="none">
<path d="M2755 3660 c-10 -17 5 -50 23 -50 48 1 57 53 10 58 -14 2 -29 -2 -33
-8z"/>
<path d="M2512 3607 c-91 -27 -103 -33 -100 -51 3 -21 11 -23 72 -15 28 4 31
1 43 -46 46 -169 67 -226 81 -220 7 3 21 5 29 5 18 0 17 6 -31 173 l-34 117
44 11 c37 10 44 15 44 35 0 31 -16 30 -148 -9z"/>
<path d="M2780 3559 c0 -5 -4 -7 -10 -4 -6 4 -10 -38 -10 -119 l0 -126 34 0
c32 0 34 2 31 28 -2 15 -4 73 -4 130 -1 95 -2 102 -21 102 -11 0 -20 -5 -20
-11z"/>
<path d="M2925 3546 c-2 -11 -18 -79 -34 -151 -45 -195 -46 -205 -28 -205 8 0
22 -3 30 -6 12 -4 18 8 27 51 7 31 10 65 7 75 -6 22 17 16 44 -11 71 -71 168
8 169 134 0 49 -4 62 -26 83 -20 21 -32 25 -62 22 -20 -3 -45 -8 -54 -12 -14
-6 -18 -3 -18 12 0 29 -49 37 -55 8z m133 -62 c48 -33 12 -154 -46 -154 -15 0
-33 5 -40 12 -25 25 -8 120 25 146 22 16 34 15 61 -4z"/>
<path d="M3426 3441 c-16 -17 -15 -20 19 -50 l36 -31 -38 -44 c-21 -24 -64
-73 -96 -110 -59 -65 -62 -77 -27 -96 16 -9 32 5 110 95 51 58 96 105 100 105
4 0 22 -14 40 -30 l33 -31 15 22 c15 21 13 24 -44 76 -32 29 -75 67 -95 83
-35 29 -37 29 -53 11z"/>
<path d="M2119 3431 c-21 -16 -24 -26 -21 -66 4 -40 6 -45 18 -34 7 8 16 32
19 54 3 22 8 46 10 53 6 16 2 15 -26 -7z"/>
<path d="M3170 3360 c-9 -17 -5 -22 41 -45 48 -25 51 -25 64 -8 12 16 8 21
-33 45 -56 33 -58 33 -72 8z"/>
<path d="M2174 3331 c-45 -28 -64 -59 -64 -108 0 -35 6 -50 36 -82 67 -75 130
-75 207 -2 39 37 46 61 23 80 -11 10 -16 8 -20 -7 -4 -10 -19 -31 -35 -46 -33
-31 -74 -37 -97 -14 -13 13 -8 22 46 72 65 60 69 73 27 101 -40 26 -88 29
-123 6z m77 -47 c11 -14 8 -21 -26 -50 -45 -39 -50 -40 -59 -18 -23 59 46 114
85 68z"/>
<path d="M3521 3108 c-74 -36 -99 -103 -65 -173 42 -89 155 -91 228 -5 44 53
27 142 -36 180 -42 26 -72 25 -127 -2z m119 -58 c11 -11 20 -29 20 -40 0 -27
-42 -66 -87 -81 -31 -10 -37 -9 -59 12 -13 12 -24 30 -24 39 0 25 30 61 64 76
43 18 63 17 86 -6z"/>
<path d="M1965 3088 c-22 -26 -26 -39 -22 -70 3 -21 3 -38 1 -38 -2 0 -30 14
-61 32 l-56 32 -19 -24 c-19 -23 -19 -25 -1 -38 10 -7 43 -26 73 -41 30 -16
93 -49 139 -75 46 -25 86 -46 90 -46 3 0 12 10 20 22 16 25 7 35 -78 80 -65
36 -86 66 -70 102 14 30 53 35 98 11 16 -8 32 -11 36 -7 5 4 5 2 2 -4 -3 -6
13 -20 38 -32 l45 -22 14 27 14 28 -87 47 c-105 58 -139 61 -176 16z"/>
<path d="M1756 2766 c-25 -156 -25 -151 7 -154 25 -3 27 -1 27 37 0 22 4 42 8
45 4 2 64 -4 132 -14 162 -25 157 -25 162 9 5 33 7 32 -201 62 l-83 12 6 47
c6 44 5 48 -17 52 -24 5 -25 1 -41 -96z"/>
<path d="M3720 2843 c-14 -2 -70 -13 -125 -23 -55 -11 -118 -23 -140 -26 -49
-7 -49 -7 -41 -40 7 -25 10 -26 49 -21 23 4 57 9 76 13 31 7 33 6 22 -14 -12
-23 -14 -82 -3 -98 40 -57 166 -58 230 -1 32 30 30 90 -4 124 -24 24 -25 28
-10 38 9 7 16 22 16 34 0 22 -11 24 -70 14z m28 -85 c7 -7 12 -24 12 -40 0
-32 -30 -56 -84 -65 -88 -14 -119 79 -36 110 28 10 96 7 108 -5z"/>
<path d="M2344 2069 c-4 -8 -3 -9 4 -5 7 4 12 2 12 -3 0 -6 -4 -11 -10 -11
-27 0 12 -38 89 -88 47 -30 109 -79 136 -108 l50 -52 -5 96 c-4 58 -2 103 4
112 6 8 6 12 1 7 -4 -4 -17 0 -27 9 -13 12 -21 14 -30 6 -14 -11 -68 -5 -68 8
0 9 -91 0 -105 -11 -6 -4 -17 -4 -25 2 -12 7 -12 11 -2 17 10 7 10 11 -2 21
-11 9 -16 9 -22 0z"/>
<path d="M2925 1961 c-3 -5 -2 -12 3 -15 5 -3 9 1 9 9 0 17 -3 19 -12 6z"/>
<path d="M2901 1860 c-5 -17 -11 -34 -12 -38 -6 -22 -55 -91 -82 -113 -27 -23
-29 -29 -18 -43 17 -20 24 -16 64 47 64 99 69 110 73 144 4 41 -11 43 -25 3z"/>
<path d="M2026 1845 c132 -187 276 -269 509 -289 39 -4 96 -9 128 -12 51 -5
57 -4 57 13 -1 10 -32 52 -71 93 -39 41 -69 68 -67 60 2 -8 12 -23 22 -32 19
-18 18 -18 -7 -18 -15 0 -27 5 -27 11 0 6 -6 9 -14 6 -8 -3 -16 0 -19 7 -4 10
-87 50 -87 42 0 -2 27 -22 60 -45 33 -23 60 -46 60 -51 0 -16 -25 -17 -63 -4
-20 7 -39 12 -40 11 -6 -4 -137 66 -156 85 -20 18 -21 18 -22 1 0 -11 -3 -13
-6 -5 -2 6 -9 12 -15 12 -6 0 -5 -6 2 -15 8 -9 22 -13 34 -10 19 5 19 4 -2 -6
-18 -10 -26 -9 -40 3 -25 23 -66 34 -60 17 3 -8 13 -16 24 -17 30 -6 38 -20
10 -17 -41 5 -90 41 -166 123 -40 43 -60 59 -44 37z m276 -187 c-7 -7 -16 -6
-29 1 -16 11 -15 11 6 5 17 -4 21 -3 16 6 -6 9 -4 11 4 5 9 -5 9 -11 3 -17z"/>
<path d="M2715 1851 c-3 -5 -1 -12 5 -16 5 -3 10 1 10 9 0 18 -6 21 -15 7z"/>
<path d="M2724 1809 c-2 -4 3 -12 11 -19 7 -6 11 -19 8 -28 -3 -9 3 -6 13 8
10 14 19 30 20 36 2 12 -45 14 -52 3z m46 -15 c0 -8 -19 -13 -24 -6 -3 5 1 9
9 9 8 0 15 -2 15 -3z"/>
<path d="M2414 1751 c21 -23 26 -26 26 -11 0 5 -10 15 -22 21 -23 12 -23 12
-4 -10z"/>
<path d="M2990 1750 c0 -5 7 -7 15 -4 8 4 15 8 15 10 0 2 -7 4 -15 4 -8 0 -15
-4 -15 -10z"/>
<path d="M3194 1709 c-6 -11 14 -21 26 -14 6 4 9 1 8 -6 -2 -6 3 -14 11 -17
10 -3 12 0 8 12 -4 10 -7 21 -7 25 0 9 -40 9 -46 0z"/>
<path d="M3086 1691 c-74 -25 -167 -98 -143 -113 22 -14 122 -8 200 12 97 24
118 35 110 57 -4 11 -8 13 -11 5 -2 -7 -8 -12 -14 -12 -6 0 -8 6 -5 14 6 14
-41 42 -51 31 -4 -3 4 -8 16 -12 42 -11 11 -63 -38 -62 l-25 0 25 12 c14 6 28
16 32 21 10 14 0 26 -17 20 -19 -8 -51 11 -36 20 6 4 11 2 11 -3 0 -6 8 -11
18 -10 11 0 12 2 4 6 -10 4 -9 8 5 18 16 12 15 13 -11 12 -16 -1 -48 -8 -70
-16z m-46 -55 c0 -2 -8 -10 -17 -17 -16 -13 -17 -12 -4 4 13 16 21 21 21 13z"/>
<path d="M3280 1655 c-11 -13 -10 -14 4 -9 9 3 16 10 16 15 0 13 -6 11 -20 -6z"/>
<path d="M2771 1573 c7 -12 15 -20 18 -17 3 2 -3 12 -13 22 -17 16 -18 16 -5
-5z"/>
<path d="M2733 1473 c9 -2 25 -2 35 0 9 3 1 5 -18 5 -19 0 -27 -2 -17 -5z"/>
<path d="M2850 1226 c0 -2 8 -10 18 -17 15 -13 16 -12 3 4 -13 16 -21 21 -21
13z"/>
</g>
</svg>
